<svg xmlns="http://www.w3.org/2000/svg" width="503" height="69.66507177033493" viewBox="0 0 503 69.66507177033493" class="editor-view__logo-preview" data-v-719f541d="" data-v-42122950=""><svg id="mark" viewBox="0 0 627 546" width="80" height="69.66507177033493" x="0" y="0" data-v-719f541d="" style="fill: rgb(141, 43, 156);"><rect x="0" y="0" width="100%" height="100%" fill="none" data-v-719f541d=""></rect><g data-v-719f541d="">
	<path xmlns="http://www.w3.org/2000/svg" d="M 274.500 5.610 C 195.762 13.276, 143.761 27.105, 65.500 61.192 C 44.224 70.459, 7.635 88.529, 5.891 90.631 C 3.920 93.007, 3.870 210.506, 5.833 229 C 14.868 314.155, 54.757 386.186, 119.500 434.260 C 156.889 462.023, 194.882 480.430, 231.489 488.517 L 243.479 491.165 266.489 508.405 C 294.444 529.350, 312.443 542, 314.287 542 C 316.152 542, 339.828 525.794, 362.500 508.999 C 387.191 490.708, 385.819 491.522, 396 489.126 C 434.907 479.969, 475.355 460.573, 510.386 434.274 C 523.526 424.409, 550.110 397.658, 561.519 382.820 C 587.105 349.543, 607.499 304.954, 615.934 263.846 C 621.924 234.658, 622.967 216.955, 622.986 144.235 L 623 91.971 619.750 89.961 C 607.740 82.533, 558.378 59.748, 531.306 49.134 C 477.946 28.216, 419.961 13.763, 364 7.435 C 350.319 5.888, 285.270 4.562, 274.500 5.610 M 293 44.632 C 222.201 47.953, 141.170 70.279, 63.613 107.834 L 43.727 117.464 44.302 134.982 C 46.031 187.627, 64.123 245.312, 91.860 286.613 C 128.599 341.319, 182.265 383.116, 238.017 400.443 L 246.534 403.091 246.166 410.388 C 244.917 435.117, 256.274 456.492, 280.590 475.178 C 288.690 481.404, 304.671 492, 305.958 492 C 306.690 492, 306.934 467.936, 306.756 413.250 L 306.500 334.500 298.039 333.799 C 269.571 331.441, 242.470 318.553, 222.440 297.848 C 204.608 279.413, 193.954 259.442, 188.360 233.960 C 185.704 221.863, 185.720 192.808, 188.387 181.500 C 200.180 131.518, 236.380 96.453, 285.961 86.988 C 305.194 83.316, 322.226 83.531, 348 87.772 L 358.500 89.500 348.500 90.212 C 342.505 90.638, 334.295 92.101, 328 93.865 C 322.225 95.482, 310.917 98.640, 302.871 100.881 C 270.164 109.991, 255.518 117.463, 239.164 133.384 C 221.082 150.987, 211.187 171.752, 209.101 196.470 C 207.224 218.722, 211.724 237.914, 223.551 258.087 C 236.041 279.392, 256.107 295.768, 279 303.339 C 287.285 306.079, 304.684 309.313, 306.177 308.391 C 306.700 308.067, 307.026 304.663, 306.901 300.825 L 306.675 293.847 314.138 288.028 L 321.602 282.208 321.179 294.065 C 320.946 300.587, 320.998 306.553, 321.294 307.323 C 321.971 309.089, 329.606 308.025, 342 304.439 C 371.286 295.965, 392.946 276.731, 407.017 246.705 C 419.111 220.897, 420.580 185.559, 410.829 155 C 405.718 138.982, 396.371 118.273, 390.292 109.500 C 387.513 105.489, 388.686 106.420, 396.220 114.203 C 433.264 152.477, 446.104 199.457, 432.424 246.665 C 418.980 293.057, 376.156 329.121, 329 333.762 L 321.500 334.500 321.413 406 C 321.365 445.325, 321.542 480.992, 321.806 485.261 L 322.287 493.022 326.894 490.355 C 347.774 478.268, 365.124 463.107, 373.453 449.671 C 381.298 437.015, 383.177 430.738, 383.761 415.250 C 384.180 404.155, 384.513 402, 385.813 402 C 389.829 402, 413.107 393.090, 427.500 386.043 C 446.581 376.701, 463.505 365.667, 478.500 352.790 C 512.182 323.867, 539.382 287.387, 555.470 249.563 C 570.831 213.447, 580.108 172.536, 581.692 133.922 L 582.290 119.343 579.395 117.293 C 574.957 114.152, 549.598 101.673, 535.294 95.591 C 476.102 70.427, 400.468 50.593, 346.500 46.084 C 332.437 44.909, 303.721 44.130, 293 44.632 M 309.553 149.500 C 307.514 167.944, 300.340 183.570, 290.152 191.757 C 278.996 200.722, 269.175 203.008, 230.679 205.598 C 225.827 205.924, 222.053 206.386, 222.291 206.624 C 222.529 206.863, 227.174 207.713, 232.612 208.513 C 274.125 214.625, 296.226 225.625, 302.915 243.503 C 306.752 253.758, 304.668 269.752, 297.931 281.750 C 296.309 284.637, 295.195 287, 295.454 287 C 296.844 287, 304.962 273.149, 311.428 259.747 C 315.483 251.343, 320.648 241.999, 322.905 238.983 C 334.407 223.619, 349.108 216.826, 386.227 209.724 C 395.452 207.959, 403 206.174, 403 205.757 C 403 205.341, 397.848 205, 391.551 205 C 385.254 205, 374.988 204.330, 368.737 203.510 C 337.849 199.461, 326.168 189.138, 314.410 155.500 L 310.216 143.500 309.553 149.500 M 307.020 197.752 C 299.906 201.326, 297.181 209.364, 300.623 216.619 C 302.997 221.621, 306.887 224.003, 312.654 223.985 C 318.696 223.967, 321.777 222.446, 324.809 217.985 C 326.755 215.122, 327.103 213.562, 326.756 209.242 C 326.281 203.324, 323.671 199.667, 318.282 197.371 C 314.008 195.550, 311.214 195.644, 307.020 197.752" stroke="none" fill="inherit" fill-rule="evenodd"></path>
</g></svg><svg id="name" viewBox="0 0 407.2380065917969 36.6619987487793" width="407" height="36.64057197320968" x="96" y="9.180500419693093" data-v-719f541d="" style="fill: rgb(146, 36, 158);"><rect x="0" y="0" width="100%" height="100%" fill="none" data-v-719f541d=""></rect><g data-v-719f541d=""><path xmlns="http://www.w3.org/2000/svg" d="M16.65 2.81L16.65 2.81Q19.78 2.81 21.76 3.68Q23.74 4.55 25.30 5.80L25.30 5.80Q25.85 6.21 26.22 6.21L26.22 6.21Q27.09 6.21 27.37 3.45L27.37 3.45L28.43 3.45Q28.34 5.24 28.29 7.80Q28.24 10.35 28.24 14.58L28.24 14.58L27.19 14.58Q26.86 11.82 26.20 9.78Q25.53 7.73 23.74 6.26L23.74 6.26Q22.63 5.20 21.00 4.60Q19.37 4.00 17.71 4.00L17.71 4.00Q15.18 4.00 13.39 5.31Q11.59 6.62 10.44 8.88Q9.29 11.13 8.74 13.96Q8.19 16.79 8.19 19.83L8.19 19.83Q8.19 28.11 10.46 31.92Q12.74 35.74 17.02 35.74L17.02 35.74Q18.12 35.74 18.95 35.47Q19.78 35.19 20.29 34.82L20.29 34.82Q20.93 34.36 21.16 33.83Q21.39 33.30 21.39 32.43L21.39 32.43L21.39 27.92Q21.39 25.81 21.04 24.77Q20.70 23.74 19.69 23.37Q18.68 23 16.74 22.95L16.74 22.95L16.74 22.03Q17.71 22.08 19.07 22.10Q20.42 22.13 21.90 22.15Q23.37 22.17 24.61 22.17L24.61 22.17Q26.54 22.17 28.15 22.13Q29.76 22.08 30.77 22.03L30.77 22.03L30.77 22.95Q29.90 23 29.46 23.28Q29.03 23.55 28.86 24.38Q28.70 25.21 28.70 26.91L28.70 26.91L28.70 36.02L27.78 36.02Q27.74 35.24 27.44 34.32Q27.14 33.40 26.45 33.40L26.45 33.40Q26.13 33.40 25.60 33.56Q25.07 33.72 23.97 34.36L23.97 34.36Q22.26 35.33 20.38 35.99Q18.49 36.66 16.42 36.66L16.42 36.66Q11.09 36.66 7.41 34.68Q3.73 32.71 1.86 29.00Q0 25.30 0 20.10L0 20.10Q0 14.86 2.14 10.99Q4.28 7.13 8.03 4.97Q11.78 2.81 16.65 2.81ZM44.80 11.59L44.80 11.59Q48.85 11.59 51.15 13.98Q53.45 16.38 53.45 21.80L53.45 21.80L38.32 21.80L38.23 20.93L47.66 20.93Q47.70 18.68 47.38 16.77Q47.06 14.86 46.37 13.71Q45.68 12.56 44.53 12.56L44.53 12.56Q42.92 12.56 41.79 14.58Q40.66 16.61 40.43 21.30L40.43 21.30L40.57 21.57Q40.53 22.13 40.50 22.72Q40.48 23.32 40.48 23.97L40.48 23.97Q40.48 27.14 41.38 29.12Q42.27 31.10 43.65 31.99Q45.03 32.89 46.46 32.89L46.46 32.89Q47.43 32.89 48.46 32.59Q49.50 32.29 50.55 31.49Q51.61 30.68 52.53 29.21L52.53 29.21L53.36 29.49Q52.81 31.23 51.61 32.89Q50.42 34.55 48.58 35.60Q46.74 36.66 44.16 36.66L44.16 36.66Q41.03 36.66 38.64 35.33Q36.25 33.99 34.89 31.28Q33.53 28.57 33.53 24.38L33.53 24.38Q33.53 20.10 34.98 17.25Q36.43 14.40 38.98 13.00Q41.54 11.59 44.80 11.59ZM65.23 11.59L65.23 11.59Q67.16 11.59 68.61 12.08Q70.06 12.56 70.70 13.02L70.70 13.02Q72.27 14.08 72.63 11.64L72.63 11.64L73.60 11.64Q73.51 12.93 73.46 14.79Q73.42 16.65 73.42 19.73L73.42 19.73L72.45 19.73Q72.22 18.03 71.58 16.38Q70.93 14.72 69.71 13.66Q68.49 12.60 66.56 12.60L66.56 12.60Q65.23 12.60 64.31 13.36Q63.39 14.12 63.39 15.55L63.39 15.55Q63.39 16.93 64.22 17.96Q65.04 19.00 66.36 19.94Q67.67 20.88 69.09 21.94L69.09 21.94Q70.61 23.09 71.85 24.22Q73.09 25.35 73.83 26.68Q74.57 28.01 74.57 29.85L74.57 29.85Q74.57 31.92 73.37 33.47Q72.17 35.01 70.22 35.83Q68.26 36.66 65.87 36.66L65.87 36.66Q64.49 36.66 63.41 36.39Q62.33 36.11 61.55 35.70L61.55 35.70Q60.95 35.42 60.42 35.17Q59.89 34.91 59.43 34.73L59.43 34.73Q58.97 34.59 58.63 35.05Q58.28 35.51 58.10 36.34L58.10 36.34L57.13 36.34Q57.22 34.87 57.27 32.75Q57.32 30.64 57.32 27.14L57.32 27.14L58.28 27.14Q58.56 29.62 59.29 31.53Q60.03 33.44 61.30 34.52Q62.56 35.60 64.49 35.60L64.49 35.60Q65.27 35.60 66.01 35.28Q66.75 34.96 67.23 34.22Q67.71 33.49 67.71 32.34L67.71 32.34Q67.71 30.31 66.40 28.98Q65.09 27.65 63.07 26.08L63.07 26.08Q61.59 24.89 60.28 23.71Q58.97 22.54 58.14 21.14Q57.32 19.73 57.32 17.94L57.32 17.94Q57.32 15.87 58.42 14.44Q59.52 13.02 61.34 12.30Q63.16 11.59 65.23 11.59ZM86.71 4.69L86.71 4.69L86.71 12.24L92.14 12.24L92.14 13.16L86.71 13.16L86.71 31.74Q86.71 33.12 87.22 33.70Q87.72 34.27 88.73 34.27L88.73 34.27Q89.56 34.27 90.39 33.65Q91.22 33.03 91.86 31.51L91.86 31.51L92.64 31.92Q91.91 33.99 90.41 35.33Q88.92 36.66 86.34 36.66L86.34 36.66Q84.82 36.66 83.67 36.27Q82.52 35.88 81.74 35.10L81.74 35.10Q80.73 34.09 80.41 32.59Q80.09 31.10 80.09 28.70L80.09 28.70L80.09 13.16L76.22 13.16L76.22 12.24L80.09 12.24L80.09 6.16Q82.02 6.16 83.65 5.82Q85.28 5.47 86.71 4.69ZM99.54 0.37L99.54 0.37Q101.48 0.37 102.60 1.31Q103.73 2.25 103.73 3.91L103.73 3.91Q103.73 5.57 102.60 6.51Q101.48 7.45 99.54 7.45L99.54 7.45Q97.61 7.45 96.49 6.51Q95.36 5.57 95.36 3.91L95.36 3.91Q95.36 2.25 96.49 1.31Q97.61 0.37 99.54 0.37ZM103.13 11.73L103.13 11.73L103.13 31.74Q103.13 33.67 103.80 34.36Q104.47 35.05 106.08 35.05L106.08 35.05L106.08 36.02Q105.25 35.97 103.50 35.90Q101.75 35.83 99.96 35.83L99.96 35.83Q98.16 35.83 96.32 35.90Q94.48 35.97 93.56 36.02L93.56 36.02L93.56 35.05Q95.17 35.05 95.84 34.36Q96.51 33.67 96.51 31.74L96.51 31.74L96.51 17.25Q96.51 15.18 95.89 14.19Q95.27 13.20 93.56 13.20L93.56 13.20L93.56 12.24Q95.04 12.37 96.42 12.37L96.42 12.37Q98.35 12.37 100.03 12.21Q101.71 12.05 103.13 11.73ZM119.92 11.59L119.92 11.59Q123.28 11.59 125.81 12.83Q128.34 14.08 129.77 16.84Q131.19 19.60 131.19 24.15L131.19 24.15Q131.19 28.70 129.77 31.44Q128.34 34.18 125.81 35.42Q123.28 36.66 119.92 36.66L119.92 36.66Q116.66 36.66 114.10 35.42Q111.55 34.18 110.10 31.44Q108.65 28.70 108.65 24.15L108.65 24.15Q108.65 19.60 110.10 16.84Q111.55 14.08 114.10 12.83Q116.66 11.59 119.92 11.59ZM119.92 12.51L119.92 12.51Q118.08 12.51 116.84 15.25Q115.60 17.99 115.60 24.15L115.60 24.15Q115.60 30.31 116.84 33.03Q118.08 35.74 119.92 35.74L119.92 35.74Q121.81 35.74 123.03 33.03Q124.25 30.31 124.25 24.15L124.25 24.15Q124.25 17.99 123.03 15.25Q121.81 12.51 119.92 12.51ZM151.16 11.59L151.16 11.59Q153.09 11.59 154.31 12.08Q155.53 12.56 156.22 13.39L156.22 13.39Q156.95 14.26 157.30 15.64Q157.64 17.02 157.64 19.37L157.64 19.37L157.64 31.74Q157.64 33.67 158.31 34.36Q158.98 35.05 160.59 35.05L160.59 35.05L160.59 36.02Q159.71 35.97 157.96 35.90Q156.22 35.83 154.51 35.83L154.51 35.83Q152.77 35.83 151.09 35.90Q149.41 35.97 148.53 36.02L148.53 36.02L148.53 35.05Q149.91 35.05 150.47 34.36Q151.02 33.67 151.02 31.74L151.02 31.74L151.02 17.43Q151.02 16.28 150.79 15.43Q150.56 14.58 149.96 14.10Q149.36 13.62 148.17 13.62L148.17 13.62Q146.92 13.62 145.89 14.31Q144.85 15.00 144.23 16.21Q143.61 17.43 143.61 18.95L143.61 18.95L143.61 31.74Q143.61 33.67 144.19 34.36Q144.76 35.05 146.10 35.05L146.10 35.05L146.10 36.02Q145.27 35.97 143.68 35.90Q142.09 35.83 140.39 35.83L140.39 35.83Q138.64 35.83 136.80 35.90Q134.96 35.97 134.04 36.02L134.04 36.02L134.04 35.05Q135.65 35.05 136.32 34.36Q136.99 33.67 136.99 31.74L136.99 31.74L136.99 17.25Q136.99 15.18 136.37 14.19Q135.75 13.20 134.04 13.20L134.04 13.20L134.04 12.24Q135.52 12.37 136.90 12.37L136.90 12.37Q138.83 12.37 140.51 12.21Q142.19 12.05 143.61 11.73L143.61 11.73L143.61 15.87Q144.76 13.52 146.74 12.56Q148.72 11.59 151.16 11.59ZM195.64 0L195.64 0L195.64 30.96Q195.64 33.03 196.28 34.02Q196.93 35.01 198.58 35.01L198.58 35.01L198.58 35.97Q197.16 35.83 195.73 35.83L195.73 35.83Q193.80 35.83 192.12 35.97Q190.44 36.11 189.01 36.48L189.01 36.48L189.01 5.52Q189.01 3.45 188.39 2.46Q187.77 1.47 186.07 1.47L186.07 1.47L186.07 0.51Q187.54 0.64 188.92 0.64L188.92 0.64Q190.81 0.64 192.51 0.48Q194.21 0.32 195.64 0ZM183.91 11.59L183.91 11.59Q185.93 11.59 187.47 12.26Q189.01 12.93 189.89 14.49L189.89 14.49L189.34 15.00Q188.74 13.89 187.75 13.41Q186.76 12.93 185.66 12.93L185.66 12.93Q183.31 12.93 181.93 15.66Q180.55 18.40 180.60 24.10L180.60 24.10Q180.60 28.01 181.13 30.34Q181.65 32.66 182.64 33.67Q183.63 34.68 184.92 34.68L184.92 34.68Q186.48 34.68 187.73 33.44Q188.97 32.20 189.06 30.08L189.06 30.08L189.29 31.69Q188.60 34.13 187.06 35.40Q185.52 36.66 183.03 36.66L183.03 36.66Q180.32 36.66 178.18 35.33Q176.04 33.99 174.85 31.21Q173.65 28.43 173.65 24.01L173.65 24.01Q173.65 19.83 174.98 17.09Q176.32 14.35 178.64 12.97Q180.96 11.59 183.91 11.59ZM212.38 11.59L212.38 11.59Q216.43 11.59 218.73 13.98Q221.03 16.38 221.03 21.80L221.03 21.80L205.90 21.80L205.80 20.93L215.23 20.93Q215.28 18.68 214.96 16.77Q214.64 14.86 213.95 13.71Q213.26 12.56 212.11 12.56L212.11 12.56Q210.50 12.56 209.37 14.58Q208.24 16.61 208.01 21.30L208.01 21.30L208.15 21.57Q208.10 22.13 208.08 22.72Q208.06 23.32 208.06 23.97L208.06 23.97Q208.06 27.14 208.95 29.12Q209.85 31.10 211.23 31.99Q212.61 32.89 214.04 32.89L214.04 32.89Q215.00 32.89 216.04 32.59Q217.07 32.29 218.13 31.49Q219.19 30.68 220.11 29.21L220.11 29.21L220.94 29.49Q220.39 31.23 219.19 32.89Q217.99 34.55 216.15 35.60Q214.31 36.66 211.74 36.66L211.74 36.66Q208.61 36.66 206.22 35.33Q203.83 33.99 202.47 31.28Q201.11 28.57 201.11 24.38L201.11 24.38Q201.11 20.10 202.56 17.25Q204.01 14.40 206.56 13.00Q209.12 11.59 212.38 11.59ZM262.84 3.45L262.84 3.45Q262.66 5.80 262.59 7.96Q262.52 10.12 262.52 11.27L262.52 11.27Q262.52 12.28 262.57 13.20Q262.61 14.12 262.66 14.77L262.66 14.77L261.60 14.77Q260.87 10.90 259.74 8.65Q258.61 6.39 257.05 5.45Q255.48 4.51 253.37 4.51L253.37 4.51L252.31 4.51L252.31 30.77Q252.31 32.61 252.70 33.53Q253.09 34.45 254.15 34.75Q255.21 35.05 257.23 35.10L257.23 35.10L257.23 36.02Q255.81 35.97 253.44 35.93Q251.07 35.88 248.49 35.88L248.49 35.88Q245.96 35.88 243.71 35.93Q241.45 35.97 240.07 36.02L240.07 36.02L240.07 35.10Q242.14 35.05 243.20 34.75Q244.26 34.45 244.63 33.53Q245.00 32.61 245.00 30.77L245.00 30.77L245.00 4.51L243.98 4.51Q241.87 4.51 240.30 5.45Q238.74 6.39 237.64 8.63Q236.53 10.86 235.70 14.77L235.70 14.77L234.65 14.77Q234.74 14.12 234.76 13.20Q234.78 12.28 234.78 11.27L234.78 11.27Q234.78 10.12 234.71 7.96Q234.65 5.80 234.46 3.45L234.46 3.45Q236.58 3.50 239.08 3.54Q241.59 3.59 244.12 3.59Q246.65 3.59 248.68 3.59L248.68 3.59Q250.75 3.59 253.25 3.59Q255.76 3.59 258.29 3.54Q260.82 3.50 262.84 3.45ZM277.01 11.59L277.01 11.59Q280.37 11.59 282.90 12.83Q285.43 14.08 286.86 16.84Q288.28 19.60 288.28 24.15L288.28 24.15Q288.28 28.70 286.86 31.44Q285.43 34.18 282.90 35.42Q280.37 36.66 277.01 36.66L277.01 36.66Q273.75 36.66 271.19 35.42Q268.64 34.18 267.19 31.44Q265.74 28.70 265.74 24.15L265.74 24.15Q265.74 19.60 267.19 16.84Q268.64 14.08 271.19 12.83Q273.75 11.59 277.01 11.59ZM277.01 12.51L277.01 12.51Q275.17 12.51 273.93 15.25Q272.69 17.99 272.69 24.15L272.69 24.15Q272.69 30.31 273.93 33.03Q275.17 35.74 277.01 35.74L277.01 35.74Q278.90 35.74 280.12 33.03Q281.34 30.31 281.34 24.15L281.34 24.15Q281.34 17.99 280.12 15.25Q278.90 12.51 277.01 12.51ZM314.04 11.73L314.04 11.73L314.04 31.00Q314.04 33.07 314.69 34.06Q315.33 35.05 316.99 35.05L316.99 35.05L316.99 36.02Q315.56 35.88 314.13 35.88L314.13 35.88Q312.20 35.88 310.55 36.02Q308.89 36.16 307.42 36.52L307.42 36.52L307.42 32.38Q306.31 34.68 304.36 35.67Q302.40 36.66 300.01 36.66L300.01 36.66Q298.08 36.66 296.88 36.16Q295.69 35.65 295.00 34.87L295.00 34.87Q294.22 33.99 293.89 32.57Q293.57 31.14 293.57 28.89L293.57 28.89L293.57 17.25Q293.57 15.18 292.95 14.19Q292.33 13.20 290.63 13.20L290.63 13.20L290.63 12.24Q292.10 12.37 293.48 12.37L293.48 12.37Q295.41 12.37 297.09 12.21Q298.77 12.05 300.20 11.73L300.20 11.73L300.20 30.77Q300.20 31.92 300.40 32.80Q300.61 33.67 301.21 34.16Q301.81 34.64 302.96 34.64L302.96 34.64Q304.20 34.64 305.19 33.95Q306.18 33.26 306.80 32.04Q307.42 30.82 307.42 29.30L307.42 29.30L307.42 17.25Q307.42 15.18 306.80 14.19Q306.18 13.20 304.47 13.20L304.47 13.20L304.47 12.24Q305.95 12.37 307.33 12.37L307.33 12.37Q309.26 12.37 310.94 12.21Q312.62 12.05 314.04 11.73ZM334.83 11.59L334.83 11.59Q336.31 11.59 337.23 12.21Q338.15 12.83 338.58 13.80Q339.02 14.77 339.02 15.82L339.02 15.82Q339.02 17.53 338.03 18.61Q337.04 19.69 335.43 19.69L335.43 19.69Q333.82 19.69 332.92 18.88Q332.03 18.08 332.03 16.74L332.03 16.74Q332.03 15.46 332.60 14.61Q333.18 13.75 334.05 13.16L334.05 13.16Q333.41 12.97 332.76 13.20L332.76 13.20Q331.89 13.34 331.11 13.92Q330.33 14.49 329.77 15.34Q329.22 16.19 328.90 17.18Q328.58 18.17 328.58 19.09L328.58 19.09L328.58 31.28Q328.58 33.49 329.66 34.27Q330.74 35.05 332.90 35.05L332.90 35.05L332.90 36.02Q331.84 35.97 329.82 35.90Q327.80 35.83 325.59 35.83L325.59 35.83Q323.75 35.83 321.86 35.90Q319.98 35.97 319.01 36.02L319.01 36.02L319.01 35.05Q320.62 35.05 321.29 34.36Q321.95 33.67 321.95 31.74L321.95 31.74L321.95 17.25Q321.95 15.18 321.33 14.19Q320.71 13.20 319.01 13.20L319.01 13.20L319.01 12.24Q320.48 12.37 321.86 12.37L321.86 12.37Q323.79 12.37 325.47 12.21Q327.15 12.05 328.58 11.73L328.58 11.73L328.58 16.01Q329.13 14.77 330.05 13.75Q330.97 12.74 332.17 12.17Q333.36 11.59 334.83 11.59ZM357.60 11.59L357.60 11.59Q359.54 11.59 360.75 12.08Q361.97 12.56 362.66 13.39L362.66 13.39Q363.40 14.26 363.74 15.64Q364.09 17.02 364.09 19.37L364.09 19.37L364.09 31.74Q364.09 33.67 364.76 34.36Q365.42 35.05 367.03 35.05L367.03 35.05L367.03 36.02Q366.16 35.97 364.41 35.90Q362.66 35.83 360.96 35.83L360.96 35.83Q359.21 35.83 357.53 35.90Q355.86 35.97 354.98 36.02L354.98 36.02L354.98 35.05Q356.36 35.05 356.91 34.36Q357.47 33.67 357.47 31.74L357.47 31.74L357.47 17.43Q357.47 16.28 357.24 15.43Q357.01 14.58 356.41 14.10Q355.81 13.62 354.61 13.62L354.61 13.62Q353.37 13.62 352.34 14.31Q351.30 15.00 350.68 16.21Q350.06 17.43 350.06 18.95L350.06 18.95L350.06 31.74Q350.06 33.67 350.63 34.36Q351.21 35.05 352.54 35.05L352.54 35.05L352.54 36.02Q351.72 35.97 350.13 35.90Q348.54 35.83 346.84 35.83L346.84 35.83Q345.09 35.83 343.25 35.90Q341.41 35.97 340.49 36.02L340.49 36.02L340.49 35.05Q342.10 35.05 342.77 34.36Q343.44 33.67 343.44 31.74L343.44 31.74L343.44 17.25Q343.44 15.18 342.81 14.19Q342.19 13.20 340.49 13.20L340.49 13.20L340.49 12.24Q341.96 12.37 343.34 12.37L343.34 12.37Q345.28 12.37 346.95 12.21Q348.63 12.05 350.06 11.73L350.06 11.73L350.06 15.87Q351.21 13.52 353.19 12.56Q355.17 11.59 357.60 11.59ZM380.60 11.59L380.60 11.59Q383.96 11.59 386.49 12.83Q389.02 14.08 390.45 16.84Q391.87 19.60 391.87 24.15L391.87 24.15Q391.87 28.70 390.45 31.44Q389.02 34.18 386.49 35.42Q383.96 36.66 380.60 36.66L380.60 36.66Q377.34 36.66 374.78 35.42Q372.23 34.18 370.78 31.44Q369.33 28.70 369.33 24.15L369.33 24.15Q369.33 19.60 370.78 16.84Q372.23 14.08 374.78 12.83Q377.34 11.59 380.60 11.59ZM380.60 12.51L380.60 12.51Q378.76 12.51 377.52 15.25Q376.28 17.99 376.28 24.15L376.28 24.15Q376.28 30.31 377.52 33.03Q378.76 35.74 380.60 35.74L380.60 35.74Q382.49 35.74 383.71 33.03Q384.93 30.31 384.93 24.15L384.93 24.15Q384.93 17.99 383.71 15.25Q382.49 12.51 380.60 12.51ZM400.71 0.37L400.71 0.37Q402.64 0.37 403.76 1.31Q404.89 2.25 404.89 3.91L404.89 3.91Q404.89 5.57 403.76 6.51Q402.64 7.45 400.71 7.45L400.71 7.45Q398.77 7.45 397.65 6.51Q396.52 5.57 396.52 3.91L396.52 3.91Q396.52 2.25 397.65 1.31Q398.77 0.37 400.71 0.37ZM404.29 11.73L404.29 11.73L404.29 31.74Q404.29 33.67 404.96 34.36Q405.63 35.05 407.24 35.05L407.24 35.05L407.24 36.02Q406.41 35.97 404.66 35.90Q402.91 35.83 401.12 35.83L401.12 35.83Q399.33 35.83 397.49 35.90Q395.65 35.97 394.73 36.02L394.73 36.02L394.73 35.05Q396.34 35.05 397.00 34.36Q397.67 33.67 397.67 31.74L397.67 31.74L397.67 17.25Q397.67 15.18 397.05 14.19Q396.43 13.20 394.73 13.20L394.73 13.20L394.73 12.24Q396.20 12.37 397.58 12.37L397.58 12.37Q399.51 12.37 401.19 12.21Q402.87 12.05 404.29 11.73Z"></path></g></svg><svg id="slogan" viewBox="0 0 218.83999633789062 14.720000267028809" width="218" height="14.663498957739067" x="96" y="49.82107239290278" data-v-719f541d="" style="fill: rgb(163, 42, 166);"><rect x="0" y="0" width="100%" height="100%" fill="none" data-v-719f541d=""></rect><g data-v-719f541d=""><path xmlns="http://www.w3.org/2000/svg" d="M10.70 0.28L10.70 0.28Q10.62 1.16 10.59 1.98Q10.56 2.80 10.56 3.24L10.56 3.24Q10.56 3.64 10.58 4Q10.60 4.36 10.62 4.60L10.62 4.60L10.16 4.60Q9.96 3.14 9.54 2.29Q9.12 1.44 8.45 1.09Q7.78 0.74 6.88 0.74L6.88 0.74L6.06 0.74Q5.48 0.74 5.18 0.84Q4.88 0.94 4.78 1.24Q4.68 1.54 4.68 2.16L4.68 2.16L4.68 12.56Q4.68 13.18 4.78 13.48Q4.88 13.78 5.18 13.88Q5.48 13.98 6.06 13.98L6.06 13.98L7.04 13.98Q7.94 13.98 8.63 13.59Q9.32 13.20 9.81 12.26Q10.30 11.32 10.56 9.72L10.56 9.72L11.02 9.72Q10.96 10.36 10.96 11.40L10.96 11.40Q10.96 11.86 10.98 12.70Q11 13.54 11.10 14.44L11.10 14.44Q10.08 14.40 8.80 14.39Q7.52 14.38 6.52 14.38L6.52 14.38Q6.02 14.38 5.24 14.38Q4.46 14.38 3.56 14.39Q2.66 14.40 1.74 14.41Q0.82 14.42 0 14.44L0 14.44L0 14.04Q0.64 14 0.96 13.88Q1.28 13.76 1.39 13.40Q1.50 13.04 1.50 12.32L1.50 12.32L1.50 2.40Q1.50 1.66 1.39 1.31Q1.28 0.96 0.95 0.83Q0.62 0.70 0 0.68L0 0.68L0 0.28Q0.82 0.30 1.74 0.31Q2.66 0.32 3.56 0.33Q4.46 0.34 5.24 0.34Q6.02 0.34 6.52 0.34L6.52 0.34Q7.44 0.34 8.61 0.33Q9.78 0.32 10.70 0.28ZM4.08 7.12L7.58 7.12Q7.58 7.12 7.58 7.32Q7.58 7.52 7.58 7.52L7.58 7.52L4.08 7.52Q4.08 7.52 4.08 7.32Q4.08 7.12 4.08 7.12L4.08 7.12ZM7.70 4.48L8.16 4.48Q8.08 5.62 8.09 6.22Q8.10 6.82 8.10 7.32L8.10 7.32Q8.10 7.82 8.12 8.42Q8.14 9.02 8.22 10.16L8.22 10.16L7.76 10.16Q7.66 9.46 7.39 8.86Q7.12 8.26 6.62 7.89Q6.12 7.52 5.32 7.52L5.32 7.52L5.32 7.12Q5.92 7.12 6.34 6.87Q6.76 6.62 7.03 6.21Q7.30 5.80 7.46 5.34Q7.62 4.88 7.70 4.48L7.70 4.48ZM25.86 0.28L25.86 0.28L25.86 0.68Q25.22 0.76 24.90 1.01Q24.58 1.26 24.47 1.80Q24.36 2.34 24.36 3.32L24.36 3.32L24.36 14.48Q24.12 14.46 23.87 14.46Q23.62 14.46 23.34 14.48L23.34 14.48L14.66 3.48L14.66 11.16Q14.66 12.26 14.78 12.85Q14.90 13.44 15.31 13.69Q15.72 13.94 16.60 14.04L16.60 14.04L16.60 14.44Q16.22 14.40 15.60 14.39Q14.98 14.38 14.44 14.38L14.44 14.38Q13.98 14.38 13.50 14.39Q13.02 14.40 12.70 14.44L12.70 14.44L12.70 14.04Q13.34 13.94 13.66 13.70Q13.98 13.46 14.09 12.91Q14.20 12.36 14.20 11.40L14.20 11.40L14.20 2.40Q14.20 1.66 14.09 1.31Q13.98 0.96 13.65 0.83Q13.32 0.70 12.70 0.68L12.70 0.68L12.70 0.28Q13.02 0.30 13.50 0.32Q13.98 0.34 14.44 0.34L14.44 0.34Q14.92 0.34 15.36 0.32Q15.80 0.30 16.16 0.28L16.16 0.28L23.90 9.82L23.90 3.56Q23.90 2.46 23.78 1.87Q23.66 1.28 23.25 1.02Q22.84 0.76 21.96 0.68L21.96 0.68L21.96 0.28Q22.34 0.30 22.96 0.32Q23.58 0.34 24.12 0.34L24.12 0.34Q24.60 0.34 25.07 0.32Q25.54 0.30 25.86 0.28ZM32.12 0.02L32.12 0.02Q33.30 0.02 33.94 0.27Q34.58 0.52 35.04 0.80L35.04 0.80Q35.28 0.94 35.43 1.01Q35.58 1.08 35.72 1.08L35.72 1.08Q35.92 1.08 36.01 0.86Q36.10 0.64 36.16 0.20L36.16 0.20L36.62 0.20Q36.60 0.58 36.57 1.11Q36.54 1.64 36.53 2.50Q36.52 3.36 36.52 4.76L36.52 4.76L36.06 4.76Q35.98 3.72 35.58 2.74Q35.18 1.76 34.45 1.13Q33.72 0.50 32.66 0.50L32.66 0.50Q31.70 0.50 31.08 1.04Q30.46 1.58 30.46 2.54L30.46 2.54Q30.46 3.34 30.86 3.91Q31.26 4.48 32.03 5.02Q32.80 5.56 33.90 6.32L33.90 6.32Q34.86 6.94 35.62 7.56Q36.38 8.18 36.84 8.96Q37.30 9.74 37.30 10.82L37.30 10.82Q37.30 12.14 36.61 13Q35.92 13.86 34.80 14.29Q33.68 14.72 32.34 14.72L32.34 14.72Q31.10 14.72 30.36 14.48Q29.62 14.24 29.12 13.98L29.12 13.98Q28.68 13.70 28.44 13.70L28.44 13.70Q28.24 13.70 28.15 13.92Q28.06 14.14 28.00 14.58L28.00 14.58L27.54 14.58Q27.58 14.10 27.59 13.46Q27.60 12.82 27.61 11.79Q27.62 10.76 27.62 9.18L27.62 9.18L28.08 9.18Q28.16 10.50 28.53 11.65Q28.90 12.80 29.67 13.50Q30.44 14.20 31.72 14.20L31.72 14.20Q32.42 14.20 32.97 13.95Q33.52 13.70 33.86 13.20Q34.20 12.70 34.20 11.96L34.20 11.96Q34.20 11.12 33.81 10.50Q33.42 9.88 32.75 9.34Q32.08 8.80 31.20 8.24L31.20 8.24Q30.26 7.62 29.44 7.00Q28.62 6.38 28.13 5.58Q27.64 4.78 27.64 3.68L27.64 3.68Q27.64 2.42 28.27 1.61Q28.90 0.80 29.93 0.41Q30.96 0.02 32.12 0.02ZM49.50 0.28L49.50 0.28Q49.42 1.16 49.39 1.98Q49.36 2.80 49.36 3.24L49.36 3.24Q49.36 3.64 49.38 4Q49.40 4.36 49.42 4.60L49.42 4.60L48.96 4.60Q48.76 3.14 48.34 2.29Q47.92 1.44 47.25 1.09Q46.58 0.74 45.68 0.74L45.68 0.74L44.86 0.74Q44.28 0.74 43.98 0.84Q43.68 0.94 43.58 1.24Q43.48 1.54 43.48 2.16L43.48 2.16L43.48 12.56Q43.48 13.18 43.58 13.48Q43.68 13.78 43.98 13.88Q44.28 13.98 44.86 13.98L44.86 13.98L45.84 13.98Q46.74 13.98 47.43 13.59Q48.12 13.20 48.61 12.26Q49.10 11.32 49.36 9.72L49.36 9.72L49.82 9.72Q49.76 10.36 49.76 11.40L49.76 11.40Q49.76 11.86 49.78 12.70Q49.80 13.54 49.90 14.44L49.90 14.44Q48.88 14.40 47.60 14.39Q46.32 14.38 45.32 14.38L45.32 14.38Q44.82 14.38 44.04 14.38Q43.26 14.38 42.36 14.39Q41.46 14.40 40.54 14.41Q39.62 14.42 38.80 14.44L38.80 14.44L38.80 14.04Q39.44 14 39.76 13.88Q40.08 13.76 40.19 13.40Q40.30 13.04 40.30 12.32L40.30 12.32L40.30 2.40Q40.30 1.66 40.19 1.31Q40.08 0.96 39.75 0.83Q39.42 0.70 38.80 0.68L38.80 0.68L38.80 0.28Q39.62 0.30 40.54 0.31Q41.46 0.32 42.36 0.33Q43.26 0.34 44.04 0.34Q44.82 0.34 45.32 0.34L45.32 0.34Q46.24 0.34 47.41 0.33Q48.58 0.32 49.50 0.28ZM42.88 7.12L46.38 7.12Q46.38 7.12 46.38 7.32Q46.38 7.52 46.38 7.52L46.38 7.52L42.88 7.52Q42.88 7.52 42.88 7.32Q42.88 7.12 42.88 7.12L42.88 7.12ZM46.50 4.48L46.96 4.48Q46.88 5.62 46.89 6.22Q46.90 6.82 46.90 7.32L46.90 7.32Q46.90 7.82 46.92 8.42Q46.94 9.02 47.02 10.16L47.02 10.16L46.56 10.16Q46.46 9.46 46.19 8.86Q45.92 8.26 45.42 7.89Q44.92 7.52 44.12 7.52L44.12 7.52L44.12 7.12Q44.72 7.12 45.14 6.87Q45.56 6.62 45.83 6.21Q46.10 5.80 46.26 5.34Q46.42 4.88 46.50 4.48L46.50 4.48ZM63.64 0.28L63.64 0.28Q63.56 1.30 63.53 2.24Q63.50 3.18 63.50 3.68L63.50 3.68Q63.50 4.12 63.52 4.52Q63.54 4.92 63.56 5.20L63.56 5.20L63.10 5.20Q62.78 3.52 62.29 2.54Q61.80 1.56 61.12 1.15Q60.44 0.74 59.52 0.74L59.52 0.74L59.06 0.74L59.06 12.16Q59.06 12.96 59.23 13.36Q59.40 13.76 59.86 13.89Q60.32 14.02 61.20 14.04L61.20 14.04L61.20 14.44Q60.58 14.42 59.55 14.40Q58.52 14.38 57.40 14.38L57.40 14.38Q56.30 14.38 55.32 14.40Q54.34 14.42 53.74 14.44L53.74 14.44L53.74 14.04Q54.64 14.02 55.10 13.89Q55.56 13.76 55.72 13.36Q55.88 12.96 55.88 12.16L55.88 12.16L55.88 0.74L55.44 0.74Q54.52 0.74 53.84 1.15Q53.16 1.56 52.68 2.53Q52.20 3.50 51.84 5.20L51.84 5.20L51.38 5.20Q51.42 4.92 51.43 4.52Q51.44 4.12 51.44 3.68L51.44 3.68Q51.44 3.18 51.41 2.24Q51.38 1.30 51.30 0.28L51.30 0.28Q52.22 0.30 53.31 0.32Q54.40 0.34 55.50 0.34Q56.60 0.34 57.48 0.34L57.48 0.34Q58.38 0.34 59.47 0.34Q60.56 0.34 61.66 0.32Q62.76 0.30 63.64 0.28ZM86.70 0.28L86.70 0.28L86.70 0.68Q86.06 0.70 85.74 0.83Q85.42 0.96 85.31 1.31Q85.20 1.66 85.20 2.40L85.20 2.40L85.20 12.32Q85.20 13.04 85.31 13.40Q85.42 13.76 85.74 13.88Q86.06 14 86.70 14.04L86.70 14.04L86.70 14.44Q86.14 14.40 85.29 14.39Q84.44 14.38 83.56 14.38L83.56 14.38Q82.60 14.38 81.76 14.39Q80.92 14.40 80.40 14.44L80.40 14.44L80.40 14.04Q81.08 14 81.43 13.88Q81.78 13.76 81.90 13.40Q82.02 13.04 82.02 12.32L82.02 12.32L82.02 1.50L82.16 1.50L77.20 14.46L76.88 14.46L71.48 1.58L71.48 11.16Q71.48 12.26 71.60 12.85Q71.72 13.44 72.13 13.69Q72.54 13.94 73.42 14.04L73.42 14.04L73.42 14.44Q73.04 14.40 72.42 14.39Q71.80 14.38 71.26 14.38L71.26 14.38Q70.80 14.38 70.32 14.39Q69.84 14.40 69.52 14.44L69.52 14.44L69.52 14.04Q70.16 13.94 70.48 13.70Q70.80 13.46 70.91 12.91Q71.02 12.36 71.02 11.40L71.02 11.40L71.02 2.40Q71.02 1.66 70.91 1.31Q70.80 0.96 70.47 0.83Q70.14 0.70 69.52 0.68L69.52 0.68L69.52 0.28Q69.84 0.30 70.32 0.32Q70.80 0.34 71.26 0.34L71.26 0.34Q72.12 0.34 72.95 0.32Q73.78 0.30 74.42 0.28L74.42 0.28L78.62 10.42L78.12 10.88L82.14 0.34Q82.48 0.34 82.84 0.34Q83.20 0.34 83.56 0.34L83.56 0.34Q84.44 0.34 85.29 0.32Q86.14 0.30 86.70 0.28ZM95.30 0L95.30 0Q97.42 0 99.01 0.86Q100.60 1.72 101.48 3.33Q102.36 4.94 102.36 7.24L102.36 7.24Q102.36 9.48 101.46 11.16Q100.56 12.84 98.95 13.78Q97.34 14.72 95.28 14.72L95.28 14.72Q93.16 14.72 91.57 13.86Q89.98 13 89.10 11.38Q88.22 9.76 88.22 7.48L88.22 7.48Q88.22 5.24 89.13 3.56Q90.04 1.88 91.63 0.94Q93.22 0 95.30 0ZM95.22 0.36L95.22 0.36Q94.10 0.36 93.27 1.26Q92.44 2.16 91.99 3.74Q91.54 5.32 91.54 7.40L91.54 7.40Q91.54 9.52 92.05 11.09Q92.56 12.66 93.43 13.51Q94.30 14.36 95.36 14.36L95.36 14.36Q96.48 14.36 97.31 13.46Q98.14 12.56 98.59 10.97Q99.04 9.38 99.04 7.32L99.04 7.32Q99.04 5.18 98.53 3.62Q98.02 2.06 97.15 1.21Q96.28 0.36 95.22 0.36ZM112.38 14.44L112.38 14.44L112.38 14.04Q113.02 14 113.34 13.88Q113.66 13.76 113.77 13.40Q113.88 13.04 113.88 12.32L113.88 12.32L113.88 2.40Q113.88 1.66 113.77 1.31Q113.66 0.96 113.33 0.83Q113.00 0.70 112.38 0.68L112.38 0.68L112.38 0.28Q112.92 0.30 113.79 0.32Q114.66 0.34 115.52 0.34L115.52 0.34Q116.44 0.34 117.25 0.32Q118.06 0.30 118.56 0.28L118.56 0.28L118.56 0.68Q117.92 0.70 117.59 0.83Q117.26 0.96 117.16 1.31Q117.06 1.66 117.06 2.40L117.06 2.40L117.06 12.32Q117.06 13.04 117.17 13.40Q117.28 13.76 117.60 13.88Q117.92 14 118.56 14.04L118.56 14.04L118.56 14.44Q118.06 14.40 117.25 14.39Q116.44 14.38 115.52 14.38L115.52 14.38Q114.66 14.38 113.79 14.39Q112.92 14.40 112.38 14.44ZM103.90 14.44L103.90 14.44L103.90 14.04Q104.54 14 104.86 13.88Q105.18 13.76 105.29 13.40Q105.40 13.04 105.40 12.32L105.40 12.32L105.40 2.40Q105.40 1.66 105.29 1.31Q105.18 0.96 104.85 0.83Q104.52 0.70 103.90 0.68L103.90 0.68L103.90 0.28Q104.42 0.30 105.25 0.32Q106.08 0.34 107.06 0.34L107.06 0.34Q107.90 0.34 108.72 0.32Q109.54 0.30 110.08 0.28L110.08 0.28L110.08 0.68Q109.44 0.70 109.11 0.83Q108.78 0.96 108.68 1.31Q108.58 1.66 108.58 2.40L108.58 2.40L108.58 12.32Q108.58 13.04 108.69 13.40Q108.80 13.76 109.12 13.88Q109.44 14 110.08 14.04L110.08 14.04L110.08 14.44Q109.54 14.40 108.72 14.39Q107.90 14.38 107.06 14.38L107.06 14.38Q106.08 14.38 105.25 14.39Q104.42 14.40 103.90 14.44ZM115.18 7.52L107.28 7.52L107.28 7.12L115.18 7.12L115.18 7.52ZM126.58 0.24L126.58 0.24L131.44 12.76Q131.72 13.48 132.07 13.75Q132.42 14.02 132.70 14.04L132.70 14.04L132.70 14.44Q132.10 14.40 131.29 14.39Q130.48 14.38 129.66 14.38L129.66 14.38Q128.74 14.38 127.92 14.39Q127.10 14.40 126.62 14.44L126.62 14.44L126.62 14.04Q127.64 14 127.91 13.69Q128.18 13.38 127.78 12.36L127.78 12.36L124.38 3.06L124.74 2.54L121.70 10.46Q121.26 11.56 121.17 12.26Q121.08 12.96 121.27 13.34Q121.46 13.72 121.89 13.87Q122.32 14.02 122.92 14.04L122.92 14.04L122.92 14.44Q122.26 14.40 121.66 14.39Q121.06 14.38 120.44 14.38L120.44 14.38Q120.00 14.38 119.61 14.39Q119.22 14.40 118.92 14.44L118.92 14.44L118.92 14.04Q119.34 13.96 119.78 13.50Q120.22 13.04 120.64 11.94L120.64 11.94L125.20 0.24Q125.52 0.26 125.89 0.26Q126.26 0.26 126.58 0.24ZM122.22 8.68L127.98 8.68L127.98 9.08L122.02 9.08L122.22 8.68ZM150.44 0.28L150.44 0.28L150.44 0.68Q149.80 0.70 149.48 0.83Q149.16 0.96 149.05 1.31Q148.94 1.66 148.94 2.40L148.94 2.40L148.94 12.32Q148.94 13.04 149.05 13.40Q149.16 13.76 149.48 13.88Q149.80 14 150.44 14.04L150.44 14.04L150.44 14.44Q149.88 14.40 149.03 14.39Q148.18 14.38 147.30 14.38L147.30 14.38Q146.34 14.38 145.50 14.39Q144.66 14.40 144.14 14.44L144.14 14.44L144.14 14.04Q144.82 14 145.17 13.88Q145.52 13.76 145.64 13.40Q145.76 13.04 145.76 12.32L145.76 12.32L145.76 1.50L145.90 1.50L140.94 14.46L140.62 14.46L135.22 1.58L135.22 11.16Q135.22 12.26 135.34 12.85Q135.46 13.44 135.87 13.69Q136.28 13.94 137.16 14.04L137.16 14.04L137.16 14.44Q136.78 14.40 136.16 14.39Q135.54 14.38 135.00 14.38L135.00 14.38Q134.54 14.38 134.06 14.39Q133.58 14.40 133.26 14.44L133.26 14.44L133.26 14.04Q133.90 13.94 134.22 13.70Q134.54 13.46 134.65 12.91Q134.76 12.36 134.76 11.40L134.76 11.40L134.76 2.40Q134.76 1.66 134.65 1.31Q134.54 0.96 134.21 0.83Q133.88 0.70 133.26 0.68L133.26 0.68L133.26 0.28Q133.58 0.30 134.06 0.32Q134.54 0.34 135.00 0.34L135.00 0.34Q135.86 0.34 136.69 0.32Q137.52 0.30 138.16 0.28L138.16 0.28L142.36 10.42L141.86 10.88L145.88 0.34Q146.22 0.34 146.58 0.34Q146.94 0.34 147.30 0.34L147.30 0.34Q148.18 0.34 149.03 0.32Q149.88 0.30 150.44 0.28ZM168.98 0.28L168.98 0.28L168.98 0.68Q168.34 0.70 168.02 0.83Q167.70 0.96 167.59 1.31Q167.48 1.66 167.48 2.40L167.48 2.40L167.48 12.32Q167.48 13.04 167.59 13.40Q167.70 13.76 168.02 13.88Q168.34 14 168.98 14.04L168.98 14.04L168.98 14.44Q168.42 14.40 167.57 14.39Q166.72 14.38 165.84 14.38L165.84 14.38Q164.88 14.38 164.04 14.39Q163.20 14.40 162.68 14.44L162.68 14.44L162.68 14.04Q163.36 14 163.71 13.88Q164.06 13.76 164.18 13.40Q164.30 13.04 164.30 12.32L164.30 12.32L164.30 1.50L164.44 1.50L159.48 14.46L159.16 14.46L153.76 1.58L153.76 11.16Q153.76 12.26 153.88 12.85Q154.00 13.44 154.41 13.69Q154.82 13.94 155.70 14.04L155.70 14.04L155.70 14.44Q155.32 14.40 154.70 14.39Q154.08 14.38 153.54 14.38L153.54 14.38Q153.08 14.38 152.60 14.39Q152.12 14.40 151.80 14.44L151.80 14.44L151.80 14.04Q152.44 13.94 152.76 13.70Q153.08 13.46 153.19 12.91Q153.30 12.36 153.30 11.40L153.30 11.40L153.30 2.40Q153.30 1.66 153.19 1.31Q153.08 0.96 152.75 0.83Q152.42 0.70 151.80 0.68L151.80 0.68L151.80 0.28Q152.12 0.30 152.60 0.32Q153.08 0.34 153.54 0.34L153.54 0.34Q154.40 0.34 155.23 0.32Q156.06 0.30 156.70 0.28L156.70 0.28L160.90 10.42L160.40 10.88L164.42 0.34Q164.76 0.34 165.12 0.34Q165.48 0.34 165.84 0.34L165.84 0.34Q166.72 0.34 167.57 0.32Q168.42 0.30 168.98 0.28ZM181.02 0.28L181.02 0.28Q180.94 1.16 180.91 1.98Q180.88 2.80 180.88 3.24L180.88 3.24Q180.88 3.64 180.90 4Q180.92 4.36 180.94 4.60L180.94 4.60L180.48 4.60Q180.28 3.14 179.86 2.29Q179.44 1.44 178.77 1.09Q178.10 0.74 177.20 0.74L177.20 0.74L176.38 0.74Q175.80 0.74 175.50 0.84Q175.20 0.94 175.10 1.24Q175.00 1.54 175.00 2.16L175.00 2.16L175.00 12.56Q175.00 13.18 175.10 13.48Q175.20 13.78 175.50 13.88Q175.80 13.98 176.38 13.98L176.38 13.98L177.36 13.98Q178.26 13.98 178.95 13.59Q179.64 13.20 180.13 12.26Q180.62 11.32 180.88 9.72L180.88 9.72L181.34 9.72Q181.28 10.36 181.28 11.40L181.28 11.40Q181.28 11.86 181.30 12.70Q181.32 13.54 181.42 14.44L181.42 14.44Q180.40 14.40 179.12 14.39Q177.84 14.38 176.84 14.38L176.84 14.38Q176.34 14.38 175.56 14.38Q174.78 14.38 173.88 14.39Q172.98 14.40 172.06 14.41Q171.14 14.42 170.32 14.44L170.32 14.44L170.32 14.04Q170.96 14 171.28 13.88Q171.60 13.76 171.71 13.40Q171.82 13.04 171.82 12.32L171.82 12.32L171.82 2.40Q171.82 1.66 171.71 1.31Q171.60 0.96 171.27 0.83Q170.94 0.70 170.32 0.68L170.32 0.68L170.32 0.28Q171.14 0.30 172.06 0.31Q172.98 0.32 173.88 0.33Q174.78 0.34 175.56 0.34Q176.34 0.34 176.84 0.34L176.84 0.34Q177.76 0.34 178.93 0.33Q180.10 0.32 181.02 0.28ZM174.40 7.12L177.90 7.12Q177.90 7.12 177.90 7.32Q177.90 7.52 177.90 7.52L177.90 7.52L174.40 7.52Q174.40 7.52 174.40 7.32Q174.40 7.12 174.40 7.12L174.40 7.12ZM178.02 4.48L178.48 4.48Q178.40 5.62 178.41 6.22Q178.42 6.82 178.42 7.32L178.42 7.32Q178.42 7.82 178.44 8.42Q178.46 9.02 178.54 10.16L178.54 10.16L178.08 10.16Q177.98 9.46 177.71 8.86Q177.44 8.26 176.94 7.89Q176.44 7.52 175.64 7.52L175.64 7.52L175.64 7.12Q176.24 7.12 176.66 6.87Q177.08 6.62 177.35 6.21Q177.62 5.80 177.78 5.34Q177.94 4.88 178.02 4.48L178.02 4.48ZM189.18 0.28L189.18 0.28Q193.12 0.28 195.04 2.07Q196.96 3.86 196.96 7.20L196.96 7.20Q196.96 9.38 196.02 11.01Q195.08 12.64 193.29 13.54Q191.50 14.44 189.00 14.44L189.00 14.44Q188.68 14.44 188.16 14.42Q187.64 14.40 187.08 14.39Q186.52 14.38 186.08 14.38L186.08 14.38Q185.20 14.38 184.35 14.39Q183.50 14.40 183.00 14.44L183.00 14.44L183.00 14.04Q183.64 14 183.96 13.88Q184.28 13.76 184.39 13.40Q184.50 13.04 184.50 12.32L184.50 12.32L184.50 2.40Q184.50 1.66 184.39 1.31Q184.28 0.96 183.95 0.83Q183.62 0.70 183.00 0.68L183.00 0.68L183.00 0.28Q183.50 0.30 184.35 0.33Q185.20 0.36 186.04 0.34L186.04 0.34Q186.76 0.32 187.67 0.30Q188.58 0.28 189.18 0.28ZM189.16 0.64L189.16 0.64Q188.24 0.64 187.96 0.98Q187.68 1.32 187.68 2.36L187.68 2.36L187.68 12.36Q187.68 13.40 187.97 13.74Q188.26 14.08 189.18 14.08L189.18 14.08Q190.86 14.08 191.83 13.29Q192.80 12.50 193.22 10.98Q193.64 9.46 193.64 7.28L193.64 7.28Q193.64 5.04 193.19 3.57Q192.74 2.10 191.76 1.37Q190.78 0.64 189.16 0.64ZM204.70 0.28L204.70 0.28L204.70 0.68Q204.06 0.70 203.73 0.83Q203.40 0.96 203.30 1.31Q203.20 1.66 203.20 2.40L203.20 2.40L203.20 12.32Q203.20 13.04 203.31 13.40Q203.42 13.76 203.74 13.88Q204.06 14 204.70 14.04L204.70 14.04L204.70 14.44Q204.16 14.40 203.34 14.39Q202.52 14.38 201.68 14.38L201.68 14.38Q200.70 14.38 199.87 14.39Q199.04 14.40 198.52 14.44L198.52 14.44L198.52 14.04Q199.16 14 199.48 13.88Q199.80 13.76 199.91 13.40Q200.02 13.04 200.02 12.32L200.02 12.32L200.02 2.40Q200.02 1.66 199.91 1.31Q199.80 0.96 199.47 0.83Q199.14 0.70 198.52 0.68L198.52 0.68L198.52 0.28Q199.04 0.30 199.87 0.32Q200.70 0.34 201.68 0.34L201.68 0.34Q202.52 0.34 203.34 0.32Q204.16 0.30 204.70 0.28ZM212.72 0.24L212.72 0.24L217.58 12.76Q217.86 13.48 218.21 13.75Q218.56 14.02 218.84 14.04L218.84 14.04L218.84 14.44Q218.24 14.40 217.43 14.39Q216.62 14.38 215.80 14.38L215.80 14.38Q214.88 14.38 214.06 14.39Q213.24 14.40 212.76 14.44L212.76 14.44L212.76 14.04Q213.78 14 214.05 13.69Q214.32 13.38 213.92 12.36L213.92 12.36L210.52 3.06L210.88 2.54L207.84 10.46Q207.40 11.56 207.31 12.26Q207.22 12.96 207.41 13.34Q207.60 13.72 208.03 13.87Q208.46 14.02 209.06 14.04L209.06 14.04L209.06 14.44Q208.40 14.40 207.80 14.39Q207.20 14.38 206.58 14.38L206.58 14.38Q206.14 14.38 205.75 14.39Q205.36 14.40 205.06 14.44L205.06 14.44L205.06 14.04Q205.48 13.96 205.92 13.50Q206.36 13.04 206.78 11.94L206.78 11.94L211.34 0.24Q211.66 0.26 212.03 0.26Q212.40 0.26 212.72 0.24ZM208.36 8.68L214.12 8.68L214.12 9.08L208.16 9.08L208.36 8.68Z"></path></g></svg></svg>